<?xml version="1.0" standalone="no"?>
<!DOCTYPE svg PUBLIC "-//W3C//DTD SVG 20010904//EN"
 "http://www.w3.org/TR/2001/REC-SVG-20010904/DTD/svg10.dtd">
<svg version="1.0" xmlns="http://www.w3.org/2000/svg"
 width="152.000000pt" height="152.000000pt" viewBox="0 0 152.000000 152.000000"
 preserveAspectRatio="xMidYMid meet">
<metadata>
Created by potrace 1.11, written by Peter Selinger 2001-2013
</metadata>
<g transform="translate(0.000000,152.000000) scale(0.100000,-0.100000)"
fill="#000000" stroke="none">
<path d="M247 1440 c-48 -9 -86 -37 -112 -81 -18 -31 -20 -55 -23 -264 -4
-248 -8 -265 -59 -265 -21 0 -23 -4 -23 -54 l0 -55 38 -3 37 -3 5 -225 c6
-247 10 -265 71 -328 35 -36 82 -52 152 -52 l47 0 0 40 c0 29 -4 40 -15 40 -8
0 -15 7 -15 15 0 11 -11 15 -38 15 -77 0 -76 -1 -82 263 -5 226 -6 236 -27
259 l-23 24 23 22 c21 22 22 31 27 257 l5 235 26 26 c18 18 41 28 73 31 46 6
46 6 46 44 0 28 -4 39 -15 39 -8 0 -15 7 -15 15 0 16 -36 18 -103 5z"/>
<path d="M1150 1411 c0 -22 5 -41 10 -41 6 0 10 -6 10 -14 0 -9 16 -15 45 -18
77 -9 75 -3 75 -248 0 -210 1 -218 24 -262 l24 -45 -21 -22 c-21 -20 -22 -33
-27 -257 l-5 -236 -28 -24 c-19 -17 -40 -24 -68 -24 -39 0 -39 0 -39 -40 0
-22 5 -40 10 -40 6 0 10 -7 10 -15 0 -11 12 -15 49 -15 58 0 108 16 140 44 46
41 51 71 51 295 0 115 4 221 10 236 6 17 20 27 40 31 29 6 30 8 30 60 l0 54
-34 0 c-22 0 -36 6 -40 16 -3 9 -6 112 -6 229 0 126 -4 225 -11 242 -12 33
-64 89 -100 108 -14 8 -53 17 -87 21 l-62 7 0 -42z"/>
<path d="M695 1214 c-22 -8 -58 -16 -80 -17 -45 -3 -68 -14 -60 -28 4 -5 1 -9
-4 -9 -6 0 -11 5 -11 11 0 8 -5 7 -15 -1 -11 -9 -14 -22 -9 -46 4 -23 1 -42
-10 -59 -19 -28 -22 -145 -5 -177 9 -16 7 -24 -11 -43 l-21 -23 30 -57 c17
-32 31 -64 31 -71 0 -8 7 -14 16 -14 8 0 21 -15 29 -34 8 -19 30 -51 50 -71
34 -37 42 -60 27 -80 -11 -16 -70 -56 -79 -53 -17 4 -123 -15 -128 -22 -12
-20 128 -104 198 -118 41 -9 204 -9 239 0 68 17 208 96 208 118 0 6 -3 9 -7 8
-5 -1 -30 2 -58 6 -27 5 -60 10 -72 11 -13 2 -36 14 -52 27 -39 31 -40 67 -2
100 16 15 37 45 47 67 10 23 23 41 28 41 6 0 23 27 39 59 27 60 35 111 17 111
-7 0 -9 31 -5 86 5 93 -4 128 -47 177 -13 15 -30 27 -38 27 -11 0 -12 2 -3 8
7 4 9 13 4 21 -6 9 -11 10 -15 2 -5 -7 -15 -4 -29 10 -51 48 -127 60 -202 33z"/>
</g>
</svg>
